<svg width="24" height="24" viewBox="0 0 24 24" fill="none" xmlns="http://www.w3.org/2000/svg">
<path d="M8.99975 3C8.99975 1.3425 10.3423 0 11.9998 0C13.6573 0 14.9998 1.3425 14.9998 3C14.9998 4.6575 13.6573 6 11.9998 6C10.3423 6 8.99975 4.6575 8.99975 3ZM18.5383 12C18.5383 10.641 19.6408 9.5385 20.9998 9.5385C22.3588 9.5385 23.4612 10.641 23.4612 12C23.4612 13.359 22.3588 14.4615 20.9998 14.4615C19.6408 14.4615 18.5383 13.359 18.5383 12ZM16.1353 18.3645C16.1353 17.133 17.1328 16.1355 18.3643 16.1355C19.5958 16.1355 20.5933 17.133 20.5933 18.3645C20.5933 19.596 19.5958 20.5935 18.3643 20.5935C17.1328 20.5935 16.1353 19.596 16.1353 18.3645ZM9.98075 21C9.98075 19.8855 10.8853 18.981 11.9998 18.981C13.1143 18.981 14.0187 19.8855 14.0187 21C14.0187 22.1145 13.1143 23.019 11.9998 23.019C10.8853 23.019 9.98075 22.1145 9.98075 21ZM3.80675 18.3645C3.80675 17.355 4.62575 16.536 5.63525 16.536C6.64475 16.536 7.46375 17.355 7.46375 18.3645C7.46375 19.374 6.64475 20.193 5.63525 20.193C4.62575 20.193 3.80675 19.374 3.80675 18.3645V18.3645ZM1.34375 12C1.34375 11.085 2.08475 10.344 2.99975 10.344C3.91475 10.344 4.65575 11.085 4.65575 12C4.65575 12.915 3.91475 13.656 2.99975 13.656C2.08475 13.656 1.34375 12.915 1.34375 12V12ZM4.13525 5.6355C4.13525 4.8075 4.80725 4.1355 5.63525 4.1355C6.46325 4.1355 7.13525 4.8075 7.13525 5.6355C7.13525 6.4635 6.46325 7.1355 5.63525 7.1355C4.80725 7.1355 4.13525 6.4635 4.13525 5.6355V5.6355ZM21.0807 5.6355C21.0807 7.1355 19.8642 8.352 18.3627 8.352C16.8612 8.352 15.6448 7.1355 15.6448 5.6355C15.6448 4.134 16.8612 2.919 18.3627 2.919C19.8642 2.919 21.0807 4.1355 21.0807 5.6355V5.6355Z" fill="black"/>
</svg>
